<svg width="170" height="90" viewBox="0 0 170 90" fill="none" xmlns="http://www.w3.org/2000/svg">
<rect x="0.5" y="0.5" width="169" height="89" rx="3.5" stroke="#AFB1B8"/>
<path d="M60.4876 61.2777C60.7175 61.5634 60.84 61.9212 60.8336 62.2884C60.8453 62.5279 60.8032 62.767 60.7104 62.988C60.6176 63.209 60.4765 63.4062 60.2975 63.565C59.851 63.9036 59.2977 64.0692 58.7393 64.0312H56V57.6262H58.6832C59.2129 57.5909 59.7383 57.7413 60.1698 58.0518C60.3431 58.1974 60.4803 58.3814 60.5706 58.5894C60.6609 58.7974 60.7019 59.0236 60.6902 59.2502C60.706 59.6035 60.5954 59.9508 60.3786 60.2295C60.1704 60.484 59.8826 60.6604 59.5621 60.7301C59.9255 60.7967 60.2535 60.9908 60.4876 61.2777ZM57.2746 60.3109H58.4215C58.6821 60.3302 58.941 60.2547 59.1507 60.0981C59.2368 60.0197 59.3038 59.9226 59.3465 59.814C59.3892 59.7055 59.4064 59.5886 59.3969 59.4723C59.405 59.3564 59.3874 59.2402 59.3453 59.132C59.3033 59.0238 59.2379 58.9263 59.1538 58.8465C58.9378 58.6855 58.6709 58.6088 58.4028 58.6306H57.2746V60.3109ZM59.2629 62.7671C59.3549 62.6869 59.4273 62.5864 59.4743 62.4735C59.5213 62.3607 59.5418 62.2384 59.534 62.1163C59.541 61.9927 59.5197 61.8692 59.4716 61.7553C59.4235 61.6414 59.35 61.54 59.2567 61.4592C59.0323 61.2922 58.7563 61.2102 58.4776 61.2277H57.2746V62.9892H58.4931C58.7674 63.0051 59.0389 62.9268 59.2629 62.7671Z" fill="#AFB1B8"/>
<path d="M65.9724 64.0312L64.4797 61.5281H63.9187V64.0312H62.6348V57.6263H65.0656C65.6783 57.5833 66.284 57.7782 66.7578 58.1707C67.0976 58.5183 67.3025 58.9764 67.3357 59.4623C67.3688 59.9482 67.228 60.4301 66.9385 60.8209C66.6386 61.1659 66.229 61.3959 65.7792 61.4717L67.3686 64.0312H65.9724ZM63.9187 60.6551H64.969C65.6982 60.6551 66.0628 60.3318 66.0628 59.6851C66.0703 59.5531 66.0503 59.4209 66.0041 59.297C65.958 59.1731 65.8867 59.0602 65.7948 58.9655C65.5644 58.773 65.2676 58.6797 64.969 58.7058H63.9063L63.9187 60.6551Z" fill="#AFB1B8"/>
<path d="M72.9905 62.7421H70.432L69.9801 64.0312H68.6338L70.9836 57.6982H72.4389L74.7794 64.0312H73.4331L72.9905 62.7421ZM72.6477 61.7721L71.7128 59.0687L70.7779 61.7721H72.6477Z" fill="#AFB1B8"/>
<path d="M81.7759 64.0312H80.5013L77.6436 59.6757V64.0312H76.3721V57.6262H77.6436L80.5013 62.0068V57.6262H81.7759V64.0312Z" fill="#AFB1B8"/>
<path d="M89.0497 62.4981C88.7862 62.9817 88.3846 63.375 87.8966 63.6276C87.3418 63.909 86.7261 64.0477 86.1047 64.0313H83.8359V57.6263H86.1047C86.725 57.61 87.3399 57.7453 87.8966 58.0206C88.3845 58.2674 88.7865 58.6569 89.0497 59.1376C89.3121 59.6585 89.4488 60.2341 89.4488 60.8178C89.4488 61.4016 89.3121 61.9772 89.0497 62.4981ZM87.5912 62.3448C87.955 61.9193 88.155 61.377 88.155 60.8163C88.155 60.2555 87.955 59.7133 87.5912 59.2878C87.1515 58.9024 86.5781 58.7067 85.9956 58.7433H85.1106V62.8892H85.9956C86.5781 62.9258 87.1515 62.7302 87.5912 62.3448Z" fill="#AFB1B8"/>
<path d="M73.7886 22C73.7886 22 90.2401 28.236 89.8911 37.2599V52.5229C89.8911 52.5229 73.452 46.2838 73.7948 37.2599L73.7886 22Z" fill="#AFB1B8"/>
<path d="M104.547 48.9497C107.654 46.8029 111.248 45.4731 115 45.0823V40.3044C110.677 41.9771 107.01 45.0101 104.547 48.9497Z" fill="#AFB1B8"/>
<path d="M102.681 50.389C105.224 45.2477 109.633 41.2804 115 39.3031V25.5357C115 25.5357 91.5708 34.4188 92.0663 47.2694V69C92.0663 69 93.1103 68.6026 94.7527 67.8579C94.7527 67.1633 94.7527 66.4624 94.8275 65.7584C95.3124 59.7925 98.1372 54.2642 102.681 50.389Z" fill="#AFB1B8"/>
<path d="M100.453 58.4616C100.576 56.9546 100.85 55.4638 101.272 54.0123C98.4432 57.3589 96.7299 61.5116 96.3734 65.8866C96.3391 66.2997 96.3204 66.7127 96.311 67.1382C97.6417 66.4968 99.1906 65.6958 100.817 64.754C100.402 62.6841 100.279 60.5659 100.453 58.4616Z" fill="#AFB1B8"/>
<path d="M101.385 58.5399C101.229 60.4437 101.326 62.3598 101.674 64.2377C108.076 60.3922 115.268 54.4504 114.991 47.2694V46.6436C110.417 47.1574 106.139 49.1647 102.812 52.3571C102.033 54.3354 101.552 56.4192 101.385 58.5399Z" fill="#AFB1B8"/>
</svg>
