<svg width="178" height="98" viewBox="0 0 178 98" fill="none" xmlns="http://www.w3.org/2000/svg">
<g filter="url(#filter0_d_25372_323)">
<rect x="4.5" y="0.5" width="169" height="89" rx="3.5" stroke="#2196F3"/>
<path d="M61.4022 36.8306H61.3995C59.1372 36.8306 57.3032 38.6177 57.3032 40.8223V40.8249C57.3032 43.0295 59.1372 44.8167 61.3995 44.8167H61.4022C63.6645 44.8167 65.4985 43.0295 65.4985 40.8249V40.8223C65.4985 38.6177 63.6645 36.8306 61.4022 36.8306Z" fill="#2196F3"/>
<path d="M91.6368 35.5545C91.6304 32.4924 90.3795 29.5575 88.1579 27.3921C85.9363 25.2266 82.925 24.007 79.7828 24V24C76.6397 24.0056 73.6269 25.2246 71.4041 27.3902C69.1814 29.5558 67.9298 32.4915 67.9233 35.5545V52.4402C67.9233 52.4402 91.6341 49.8667 91.6368 35.5571V35.5545Z" fill="#2196F3"/>
<path d="M49 57.9823C49.0057 60.1129 49.8766 62.1547 51.4223 63.6615C52.968 65.1683 55.0629 66.0177 57.2492 66.0239C59.4351 66.0177 61.5296 65.1687 63.0752 63.6625C64.6209 62.1562 65.492 60.1151 65.4985 57.9849V46.2356C65.4985 46.2356 49 48.0276 49 57.9823ZM57.2492 60.0874C56.822 60.0874 56.4043 59.964 56.0491 59.7326C55.6938 59.5013 55.417 59.1726 55.2535 58.7879C55.09 58.4032 55.0472 57.98 55.1305 57.5716C55.2139 57.1632 55.4196 56.7881 55.7217 56.4937C56.0239 56.1993 56.4088 55.9988 56.8278 55.9176C57.2468 55.8364 57.6812 55.8781 58.0759 56.0374C58.4706 56.1967 58.808 56.4665 59.0454 56.8127C59.2827 57.1589 59.4094 57.5659 59.4094 57.9823C59.4105 58.2594 59.3554 58.534 59.2473 58.7903C59.1392 59.0466 58.9803 59.2796 58.7796 59.476C58.5789 59.6723 58.3404 59.828 58.0778 59.9343C57.8152 60.0406 57.5336 60.0953 57.2492 60.0953V60.0874Z" fill="#2196F3"/>
<path d="M74.0894 58.7812H72.4019V60.5244H71.5229V56.2588H74.3003V56.9707H72.4019V58.0723H74.0894V58.7812ZM78.314 58.4883C78.314 58.9082 78.2397 59.2764 78.0913 59.5928C77.9429 59.9092 77.73 60.1533 77.4526 60.3252C77.1772 60.4971 76.8608 60.583 76.5034 60.583C76.1499 60.583 75.8345 60.498 75.5571 60.3281C75.2798 60.1582 75.0649 59.916 74.9126 59.6016C74.7603 59.2852 74.6831 58.9219 74.6812 58.5117V58.3008C74.6812 57.8809 74.7563 57.5117 74.9067 57.1934C75.0591 56.873 75.2729 56.6279 75.5483 56.458C75.8257 56.2861 76.1421 56.2002 76.4976 56.2002C76.853 56.2002 77.1685 56.2861 77.4438 56.458C77.7212 56.6279 77.9351 56.873 78.0854 57.1934C78.2378 57.5117 78.314 57.8799 78.314 58.2979V58.4883ZM77.4233 58.2949C77.4233 57.8477 77.3433 57.5078 77.1831 57.2754C77.0229 57.043 76.7944 56.9268 76.4976 56.9268C76.2026 56.9268 75.9751 57.042 75.8149 57.2725C75.6548 57.501 75.5737 57.8369 75.5718 58.2803V58.4883C75.5718 58.9238 75.6519 59.2617 75.812 59.502C75.9722 59.7422 76.2026 59.8623 76.5034 59.8623C76.7983 59.8623 77.0249 59.7471 77.1831 59.5166C77.3413 59.2842 77.4214 58.9463 77.4233 58.5029V58.2949ZM81.1646 59.4053C81.1646 59.2393 81.106 59.1123 80.9888 59.0244C80.8716 58.9346 80.6606 58.8408 80.356 58.7432C80.0513 58.6436 79.8101 58.5459 79.6323 58.4502C79.1479 58.1885 78.9058 57.8359 78.9058 57.3926C78.9058 57.1621 78.9702 56.957 79.0991 56.7773C79.23 56.5957 79.4165 56.4541 79.6587 56.3525C79.9028 56.251 80.1763 56.2002 80.479 56.2002C80.7837 56.2002 81.0552 56.2559 81.2935 56.3672C81.5317 56.4766 81.7163 56.6318 81.8472 56.833C81.98 57.0342 82.0464 57.2627 82.0464 57.5186H81.1675C81.1675 57.3232 81.106 57.1719 80.9829 57.0645C80.8599 56.9551 80.687 56.9004 80.4644 56.9004C80.2495 56.9004 80.0825 56.9463 79.9634 57.0381C79.8442 57.1279 79.7847 57.2471 79.7847 57.3955C79.7847 57.5342 79.854 57.6504 79.9927 57.7441C80.1333 57.8379 80.3394 57.9258 80.6108 58.0078C81.1108 58.1582 81.4751 58.3447 81.7036 58.5674C81.9321 58.79 82.0464 59.0674 82.0464 59.3994C82.0464 59.7686 81.9067 60.0586 81.6274 60.2695C81.3481 60.4785 80.9722 60.583 80.4995 60.583C80.1714 60.583 79.8726 60.5234 79.603 60.4043C79.3335 60.2832 79.1274 60.1182 78.9849 59.9092C78.8442 59.7002 78.7739 59.458 78.7739 59.1826H79.6558C79.6558 59.6533 79.937 59.8887 80.4995 59.8887C80.7085 59.8887 80.8716 59.8467 80.9888 59.7627C81.106 59.6768 81.1646 59.5576 81.1646 59.4053ZM85.855 56.9707H84.5483V60.5244H83.6694V56.9707H82.3804V56.2588H85.855V56.9707ZM88.9253 58.6758H87.2378V59.8184H89.2183V60.5244H86.3589V56.2588H89.2124V56.9707H87.2378V57.9873H88.9253V58.6758ZM91.313 58.9629H90.6128V60.5244H89.7339V56.2588H91.3188C91.8228 56.2588 92.2114 56.3711 92.4849 56.5957C92.7583 56.8203 92.895 57.1377 92.895 57.5479C92.895 57.8389 92.8315 58.082 92.7046 58.2773C92.5796 58.4707 92.3892 58.625 92.1333 58.7402L93.0562 60.4834V60.5244H92.1128L91.313 58.9629ZM90.6128 58.251H91.3218C91.5425 58.251 91.7134 58.1953 91.8345 58.084C91.9556 57.9707 92.0161 57.8154 92.0161 57.6182C92.0161 57.417 91.9585 57.2588 91.8433 57.1436C91.73 57.0283 91.5552 56.9707 91.3188 56.9707H90.6128V58.251ZM95.939 59.0215V60.5244H95.0601V56.2588H96.7241C97.0444 56.2588 97.3257 56.3174 97.5679 56.4346C97.812 56.5518 97.9995 56.7188 98.1304 56.9355C98.2612 57.1504 98.3267 57.3955 98.3267 57.6709C98.3267 58.0889 98.1831 58.4189 97.896 58.6611C97.6108 58.9014 97.2153 59.0215 96.7095 59.0215H95.939ZM95.939 58.3096H96.7241C96.9565 58.3096 97.1333 58.2549 97.2544 58.1455C97.3774 58.0361 97.439 57.8799 97.439 57.6768C97.439 57.4678 97.3774 57.2988 97.2544 57.1699C97.1313 57.041 96.9614 56.9746 96.7446 56.9707H95.939V58.3096ZM101.5 58.6758H99.812V59.8184H101.792V60.5244H98.9331V56.2588H101.787V56.9707H99.812V57.9873H101.5V58.6758ZM105.578 56.9707H104.271V60.5244H103.392V56.9707H102.103V56.2588H105.578V56.9707ZM108.648 58.6758H106.96V59.8184H108.941V60.5244H106.082V56.2588H108.935V56.9707H106.96V57.9873H108.648V58.6758ZM111.036 58.9629H110.335V60.5244H109.457V56.2588H111.042C111.545 56.2588 111.934 56.3711 112.208 56.5957C112.481 56.8203 112.618 57.1377 112.618 57.5479C112.618 57.8389 112.554 58.082 112.427 58.2773C112.302 58.4707 112.112 58.625 111.856 58.7402L112.779 60.4834V60.5244H111.835L111.036 58.9629ZM110.335 58.251H111.044C111.265 58.251 111.436 58.1953 111.557 58.084C111.678 57.9707 111.739 57.8154 111.739 57.6182C111.739 57.417 111.681 57.2588 111.566 57.1436C111.453 57.0283 111.278 56.9707 111.042 56.9707H110.335V58.251ZM115.5 59.4053C115.5 59.2393 115.442 59.1123 115.325 59.0244C115.208 58.9346 114.997 58.8408 114.692 58.7432C114.387 58.6436 114.146 58.5459 113.968 58.4502C113.484 58.1885 113.242 57.8359 113.242 57.3926C113.242 57.1621 113.306 56.957 113.435 56.7773C113.566 56.5957 113.752 56.4541 113.995 56.3525C114.239 56.251 114.512 56.2002 114.815 56.2002C115.12 56.2002 115.391 56.2559 115.629 56.3672C115.868 56.4766 116.052 56.6318 116.183 56.833C116.316 57.0342 116.382 57.2627 116.382 57.5186H115.503C115.503 57.3232 115.442 57.1719 115.319 57.0645C115.196 56.9551 115.023 56.9004 114.8 56.9004C114.585 56.9004 114.418 56.9463 114.299 57.0381C114.18 57.1279 114.121 57.2471 114.121 57.3955C114.121 57.5342 114.19 57.6504 114.329 57.7441C114.469 57.8379 114.675 57.9258 114.947 58.0078C115.447 58.1582 115.811 58.3447 116.04 58.5674C116.268 58.79 116.382 59.0674 116.382 59.3994C116.382 59.7686 116.243 60.0586 115.963 60.2695C115.684 60.4785 115.308 60.583 114.835 60.583C114.507 60.583 114.208 60.5234 113.939 60.4043C113.669 60.2832 113.463 60.1182 113.321 59.9092C113.18 59.7002 113.11 59.458 113.11 59.1826H113.992C113.992 59.6533 114.273 59.8887 114.835 59.8887C115.044 59.8887 115.208 59.8467 115.325 59.7627C115.442 59.6768 115.5 59.5576 115.5 59.4053Z" fill="#2196F3"/>
</g>
<defs>
<filter id="filter0_d_25372_323" x="0" y="0" width="178" height="98" filterUnits="userSpaceOnUse" color-interpolation-filters="sRGB">
<feFlood flood-opacity="0" result="BackgroundImageFix"/>
<feColorMatrix in="SourceAlpha" type="matrix" values="0 0 0 0 0 0 0 0 0 0 0 0 0 0 0 0 0 0 127 0" result="hardAlpha"/>
<feOffset dy="4"/>
<feGaussianBlur stdDeviation="2"/>
<feComposite in2="hardAlpha" operator="out"/>
<feColorMatrix type="matrix" values="0 0 0 0 0 0 0 0 0 0 0 0 0 0 0 0 0 0 0.25 0"/>
<feBlend mode="normal" in2="BackgroundImageFix" result="effect1_dropShadow_25372_323"/>
<feBlend mode="normal" in="SourceGraphic" in2="effect1_dropShadow_25372_323" result="shape"/>
</filter>
</defs>
</svg>
