<svg width="44" height="44" viewBox="0 0 44 44" fill="none" xmlns="http://www.w3.org/2000/svg">
<path d="M44 21.9999C44 28.0751 41.5376 33.5751 37.5564 37.5563C33.5751 41.5375 28.0751 43.9999 22 43.9999C15.9249 43.9999 10.4249 41.5375 6.44365 37.5563C2.46243 33.5751 0 28.0751 0 21.9999C0 15.9248 2.46243 10.4248 6.44365 6.44359C10.4249 2.46237 15.9249 -6.10352e-05 22 -6.10352e-05C28.0751 -6.10352e-05 33.5751 2.46237 37.5564 6.44359C41.5376 10.4248 44 15.9248 44 21.9999Z" fill="white" fill-opacity="0.1"/>
<g clip-path="url(#clip0_25372_375)">
<path d="M31.9951 32V31.9992H32.0001V24.6642C32.0001 21.0759 31.2276 18.3117 27.0326 18.3117C25.0159 18.3117 23.6626 19.4184 23.1101 20.4675H23.0517V18.6467H19.0742V31.9992H23.2159V25.3875C23.2159 23.6467 23.5459 21.9634 25.7017 21.9634C27.8259 21.9634 27.8576 23.95 27.8576 25.4992V32H31.9951Z" fill="white"/>
<path d="M12.3301 18.6475H16.4767V32H12.3301V18.6475Z" fill="white"/>
<path d="M14.4017 12C13.0758 12 12 13.0758 12 14.4017C12 15.7275 13.0758 16.8258 14.4017 16.8258C15.7275 16.8258 16.8033 15.7275 16.8033 14.4017C16.8025 13.0758 15.7267 12 14.4017 12V12Z" fill="white"/>
</g>
<defs>
<clipPath id="clip0_25372_375">
<rect width="20" height="20" fill="white" transform="translate(12 12)"/>
</clipPath>
</defs>
</svg>
