<svg aria-hidden="true" style="position:absolute;width:0;height:0;overflow:hidden" xmlns="http://www.w3.org/2000/svg"><defs><symbol id="icon-gmail" viewBox="0 0 32 32"><path  style="" d="M29 4.571H3c-1.654 0-3 1.282-3 2.857v17.143c0 1.576 1.346 2.857 3 2.857h26c1.654 0 3-1.282 3-2.857V7.428c0-1.576-1.346-2.857-3-2.857zm0 1.905c.136 0 .265.027.383.074L16 17.597 2.617 6.55c.118-.047.247-.074.383-.074h26zm0 19.048H3c-.552 0-1-.427-1-.952V8.563l13.345 11.015c.188.155.422.233.655.233s.467-.077.655-.233L30 8.563v16.009c0 .526-.448.952-1 .952z"/></symbol><symbol id="icon-smartphone" viewBox="0 0 32 32"><path style="" d="M24 0H8C6.109 0 4.571 1.346 4.571 3v26c0 1.654 1.538 3 3.429 3h16c1.891 0 3.429-1.346 3.429-3V3c0-1.654-1.538-3-3.429-3zM8 2h16c.631 0 1.143.448 1.143 1v21H6.857V3c0-.552.512-1 1.143-1zm16 28H8c-.631 0-1.143-.448-1.143-1v-3h18.286v3c0 .552-.512 1-1.143 1z"/><path  style="" d="M9.951 27.293c.446.391.446 1.024 0 1.415s-1.17.391-1.616 0c-.446-.391-.446-1.024 0-1.415s1.17-.391 1.616 0z"/></symbol><symbol id="icon-antenna" viewBox="0 0 32 32"><path fill="#212121" style="fill:var(--color2, #212121)" d="m30.773 22.098-8.443-8.505.937-4.615c.242.094.499.144.758.146h.006a2.159 2.159 0 1 0-2.008-1.435l-4.96.605L8.972.161a.534.534 0 0 0-.377-.16.532.532 0 0 0-.373.155L6.709 1.66a.534.534 0 0 0 0 .754l.814.826a14.943 14.943 0 0 0 2.519 17.663.513.513 0 0 0 .146.098c-.034.18-.051.364-.052.547v6.187h-6.4a2.67 2.67 0 0 0-2.667 2.667v1.067c0 .295.239.533.533.533h24.533a.533.533 0 0 0 .533-.533v-1.067a2.67 2.67 0 0 0-2.667-2.667h-6.4v-2.742a15.09 15.09 0 0 0 3.049.32 14.854 14.854 0 0 0 7.04-1.783l.818.823a.534.534 0 0 0 .377.16.532.532 0 0 0 .373-.155l1.513-1.504a.534.534 0 0 0 0-.754zM23.28 6.233a1.066 1.066 0 1 1 .752 1.822h-.003a1.067 1.067 0 0 1-.747-1.823h-.002zm-1.256 3.505-.598 2.946-1.175-1.182 1.774-1.763zm-.605-.902-1.92 1.909-1.485-1.493 3.405-.415zM24.004 28.8a1.6 1.6 0 0 1 1.6 1.6v.533H2.137V30.4a1.6 1.6 0 0 1 1.6-1.6h20.267zm-7.467-2.133v1.067h-5.333v-1.067h5.333zM11.204 25.6v-4.053c0-1.294 1.196-2.347 2.667-2.347s2.667 1.053 2.667 2.347V25.6h-5.333zm6.4-1.696v-2.357c0-1.882-1.675-3.413-3.733-3.413a3.8 3.8 0 0 0-3.281 1.786A13.87 13.87 0 0 1 8.311 4.033l18.602 18.708a13.818 13.818 0 0 1-9.309 1.163zm11.289-.684L7.836 2.039l.755-.752 7.935 7.98c.004 0 .006.007.01.01l13.115 13.191-.757.752z"/><path fill="#2196f3" style="fill:var(--color3, #2196f3)" d="M13.876 20.267h-.005a1.6 1.6 0 1 0-.004 3.2h.005a1.6 1.6 0 1 0 .004-3.2zm.373 1.978a.534.534 0 1 1-.379-.911.532.532 0 0 1 .373.911h.005z"/></symbol><symbol id="icon-clock" viewBox="0 0 32 32"><path fill="#212121" style="fill:var(--color2, #212121)" d="M31.297 15.301C31.295 6.849 24.442-.002 15.989 0S.686 6.855.688 15.308a15.304 15.304 0 0 0 10.649 14.576.662.662 0 0 0 .529-.065.637.637 0 0 0 .283-.356l3.865-12.25a1.912 1.912 0 1 0-.84-3.635l-5.106-5.107a.637.637 0 0 0-.902.902l5.103 5.109a1.876 1.876 0 0 0 .536 2.309l-3.683 11.673C3.844 25.783.118 17.71 2.799 10.432S13.553-.572 20.831 2.109s11.004 10.754 8.323 18.032a14.042 14.042 0 0 1-7.462 7.973l-.398-1.874a.638.638 0 0 0-1.048-.344l-3.837 3.426a.637.637 0 0 0 .231 1.084l4.899 1.563a.638.638 0 0 0 .819-.74l-.391-1.839a15.255 15.255 0 0 0 9.329-14.089zm-15.305-.637a.638.638 0 1 1 0 1.277.638.638 0 0 1 0-1.277zm2.101 14.864 2.184-1.948.603 2.84-2.787-.892z"/><path fill="#2196f3" style="fill:var(--color3, #2196f3)" d="M15.354 3.185V4.46a.638.638 0 1 0 1.276 0V3.185a.638.638 0 0 0-1.276 0zM3.876 14.664a.638.638 0 0 0 0 1.276h1.275a.638.638 0 1 0 0-1.276H3.876zM28.108 15.939a.638.638 0 1 0 0-1.276h-1.275a.638.638 0 0 0 0 1.276h1.275z"/></symbol><symbol id="icon-diagram" viewBox="0 0 32 32"><path fill="#2196f3" style="fill:var(--color3, #2196f3)" d="M14.925 14.965h1.066v4.798h-1.066v-4.797zM19.19 17.097h1.066v2.665H19.19v-2.665zM10.661 18.696h1.066v1.066h-1.066v-1.066zM7.463 18.163h1.066v1.599H7.463v-1.599z"/><path fill="#212121" style="fill:var(--color2, #212121)" d="M1.599 28.291h25.587a1.6 1.6 0 0 0 1.599-1.599V24.56a1.6 1.6 0 0 0-1.599-1.599h-.533V9.668L29.681 6.8a1.608 1.608 0 1 0-.746-.763L26.654 8.2V6.97a1.6 1.6 0 0 0-1.599-1.599H3.733A1.6 1.6 0 0 0 2.134 6.97v15.992h-.533a1.6 1.6 0 0 0-1.599 1.599v2.132a1.6 1.6 0 0 0 1.599 1.599zM30.384 4.837a.533.533 0 1 1 0 1.067.533.533 0 0 1 0-1.067zM3.198 6.969c0-.294.239-.533.533-.533h21.322c.294 0 .533.239.533.533v2.239l-1.066 1.013V8.035a.533.533 0 0 0-.533-.533H4.797a.533.533 0 0 0-.533.533v13.326c0 .294.239.533.533.533h19.19a.533.533 0 0 0 .533-.533v-9.674l1.066-1.01v12.284H3.198V6.969zm4.798 6.929a1.598 1.598 0 1 0 1.107 2.749l1.853.93a.532.532 0 0 0 .636-.123l3.939-4.431 3.872 2.901a.533.533 0 0 0 .686-.039l3.365-3.188v8.131H5.33V8.568h18.124v2.66L19.683 14.8l-3.904-2.927a.533.533 0 0 0-.718.072l-3.993 4.493-1.493-.746c.011-.064.018-.129.02-.193A1.6 1.6 0 0 0 7.996 13.9zm.533 1.6a.533.533 0 1 1-1.067 0 .533.533 0 0 1 1.067 0zm3.198 8.528h5.331v.533a.533.533 0 0 1-.533.533h-4.264a.533.533 0 0 1-.533-.533v-.533zm-10.661.534c0-.294.239-.533.533-.533h9.062v.533a1.6 1.6 0 0 0 1.599 1.599h4.264a1.6 1.6 0 0 0 1.599-1.599v-.533h9.062c.294 0 .533.239.533.533v2.132a.533.533 0 0 1-.533.533H1.598a.533.533 0 0 1-.533-.533V24.56z"/></symbol><symbol id="icon-astronaut" viewBox="0 0 32 32"><path fill="#2196f3" style="fill:var(--color3, #2196f3)" d="M31.974 4.524a.534.534 0 0 0-.43-.363l-1.91-.278-.855-1.731c-.179-.365-.777-.365-.956 0l-.855 1.731-1.91.278a.535.535 0 0 0-.296.91l1.383 1.348-.326 1.903c-.034.2.048.402.212.522a.53.53 0 0 0 .562.04l1.709-.899 1.709.899a.536.536 0 0 0 .775-.563l-.326-1.903 1.383-1.348a.536.536 0 0 0 .135-.547zm-2.463 1.327a.534.534 0 0 0-.153.472l.191 1.114-1-.526a.533.533 0 0 0-.498 0l-1.001.526.191-1.114a.534.534 0 0 0-.153-.472l-.81-.789 1.119-.163a.532.532 0 0 0 .402-.292l.5-1.013.5 1.013a.535.535 0 0 0 .402.292l1.119.163-.809.789zM26.133 20.522h-1.067v1.067h1.067v-1.067zM26.133 22.656h-1.067v1.067h1.067v-1.067zM27.2 21.589h-1.067v1.067H27.2v-1.067zM25.067 21.589H24v1.067h1.067v-1.067zM22.4 26.389h-1.067v1.067H22.4v-1.067zM22.4 28.522h-1.067v1.067H22.4v-1.067zM23.467 27.456H22.4v1.067h1.067v-1.067zM21.333 27.456h-1.067v1.067h1.067v-1.067zM16 24.256h-1.067v1.067H16v-1.067zM16 26.389h-1.067v1.067H16v-1.067zM17.067 25.322H16v1.067h1.067v-1.067zM14.933 25.322h-1.067v1.067h1.067v-1.067zM5.866 6.122H4.799v1.067h1.067V6.122zM5.866 8.255H4.799v1.067h1.067V8.255z"/><path fill="#2196f3" style="fill:var(--color3, #2196f3)" d="M6.933 7.189H5.866v1.067h1.067V7.189zM4.8 7.189H3.733v1.067H4.8V7.189z"/><path fill="#212121" style="fill:var(--color2, #212121)" d="M24.715 14.159a1.775 1.775 0 0 0-1.188-.705 1.778 1.778 0 0 0-1.34.352l-1.252.96-1.898 1.417-1.358-.541c2.421-1.086 4.114-3.508 4.114-6.32 0-3.823-3.123-6.933-6.961-6.933s-6.961 3.11-6.961 6.933a6.86 6.86 0 0 0 1.12 3.758l-2.764-.024h-.005c-.009 0-.015.004-.023.005a.515.515 0 0 0-.155.031l-.038.013c-.006.003-.013.003-.019.006l-3.233 1.596-.001.001-1.893.911a.397.397 0 0 0-.063.035 1.779 1.779 0 0 0-.598 2.295c.22.429.595.745 1.056.889a1.776 1.776 0 0 0 1.378-.128l1.388-.738 2.264-1.169 1.357-.008L2.2 22.211l-.002.001-1.339 1.333c-.316.315-.49.732-.49 1.178s.174.863.49 1.179c.325.323.752.485 1.179.485s.854-.162 1.18-.485l1.314-1.309 1.741-1.3.901.897-1.762 1.754-.002.001-1.339 1.333c-.316.315-.49.732-.49 1.178s.174.863.49 1.179c.325.323.753.485 1.18.485s.855-.162 1.18-.485l3.482-3.467.001-.002 1.01-1-.004-.004c.006-.006.015-.009.022-.015l5.166-5.658 3.471.494a.52.52 0 0 0 .262-.033c.018-.006.033-.015.05-.023.019-.01.039-.015.058-.027l3.213-2.133c.012-.008.018-.021.029-.029.013-.01.029-.014.041-.026l1.271-1.191c.662-.62.753-1.635.212-2.362zM2.13 17.77a.714.714 0 0 1-.558.052.717.717 0 0 1-.213-1.26l1.314-.632.449 1.312-.992.527zm3.498-1.828-1.548.8-.439-1.283 2.027-1.001-.04 1.484zm15.099-6.62a5.79 5.79 0 0 1-.599 2.559l-4.181-1.899a1.863 1.863 0 0 0-.788-1.388l1.464-4.86c2.378.756 4.105 2.974 4.105 5.588zm-11.789 0c0-3.235 2.644-5.867 5.894-5.867.253 0 .5.021.745.052l-1.432 4.754c-.019-.001-.037-.006-.057-.006-1.033 0-1.873.837-1.873 1.867s.84 1.867 1.873 1.867c.694 0 1.294-.383 1.618-.945l3.862 1.755a5.894 5.894 0 0 1-4.737 2.39c-3.25 0-5.894-2.632-5.894-5.867zm5.956.8c0 .441-.362.8-.806.8s-.806-.359-.806-.8c0-.441.362-.8.806-.8s.806.359.806.8zM2.465 25.146a.608.608 0 0 1-.854.001.592.592 0 0 1 0-.844l.962-.958.851.848-.959.955zm3.214 3.734a.608.608 0 0 1-.855.001.592.592 0 0 1 0-.844l.963-.959.852.848-.96.955zm3.481-3.469-.002.001-1.765 1.76-.852-.848 1.763-1.755.002-.001c.04-.04.065-.088.09-.135.007-.014.02-.026.026-.04.017-.041.019-.085.026-.129.003-.025.014-.047.014-.073 0-.036-.013-.07-.02-.106-.006-.032-.006-.065-.019-.095a.55.55 0 0 0-.091-.138c-.01-.012-.014-.027-.025-.038h-.001l-.001-.002-1.607-1.6c-.017-.017-.039-.024-.058-.038a.507.507 0 0 0-.087-.058.515.515 0 0 0-.093-.033.507.507 0 0 0-.103-.02.5.5 0 0 0-.095.005.53.53 0 0 0-.104.02.477.477 0 0 0-.094.045c-.02.011-.042.015-.061.029L4.23 23.486l-.901-.897 2.399-2.386 4.361 4.289-.928.919zm6.819-7.017c-.015-.002-.03.004-.045.003a.556.556 0 0 0-.3.075.492.492 0 0 0-.083.061c-.013.011-.028.017-.04.029l-4.698 5.146-4.328-4.257 2.833-2.818a.534.534 0 0 0-.379-.911v-.001l-2.219.013.028-1.607 3.104.027a6.947 6.947 0 0 0 4.981 2.101c.437 0 .864-.045 1.279-.123.04.032.079.065.13.085l2.41.96.152.758.178.885-3.003-.427zm4.041.178-.313-1.558 1.446-1.08.947 1.257-2.08 1.381zm3.754-2.831-.838.785-.931-1.236.831-.637a.735.735 0 0 1 .543-.143.718.718 0 0 1 .48.284.713.713 0 0 1-.085.947z"/><path fill="#212121" style="fill:var(--color2, #212121)" d="m13.602 18.544-2.143-2.133a.534.534 0 0 0-.753 0l-2.142 2.133a.537.537 0 0 0 0 .756l2.142 2.133a.536.536 0 0 0 .753 0l2.143-2.133a.535.535 0 0 0 0-.756zm-2.519 1.759-1.387-1.381 1.387-1.381 1.387 1.381-1.387 1.381zM17.164 5.071l-.258 1.036c.071.018 1.738.452 1.738 2.149h1.067c0-2.017-1.666-2.965-2.547-3.185zM19.711 9.322h-1.067v1.067h1.067V9.322z"/></symbol><symbol id="icon-instagram" viewBox="0 0 32 32"><path style="" d="M32 16c0 4.418-1.791 8.418-4.686 11.314S20.419 32 16 32s-8.418-1.791-11.314-4.686C1.791 24.419 0 20.419 0 16S1.791 7.582 4.686 4.686 11.581 0 16 0c4.418 0 8.418 1.791 11.314 4.686S32 11.581 32 16z"/><path " style="" d="M23.258 13.004c-.034-.773-.159-1.304-.338-1.765a3.557 3.557 0 0 0-.841-1.29 3.589 3.589 0 0 0-1.287-.838c-.463-.179-.992-.304-1.764-.338-.779-.037-1.026-.046-3.001-.046s-2.222.009-2.998.043c-.773.034-1.304.159-1.764.338a3.557 3.557 0 0 0-1.29.841 3.589 3.589 0 0 0-.838 1.287c-.179.463-.304.992-.338 1.764-.037.779-.045 1.026-.045 3.001s.008 2.222.043 2.998c.034.773.159 1.304.338 1.765.185.489.472.926.841 1.29.364.369.804.656 1.287.838.463.179.992.304 1.765.338.776.034 1.023.043 2.998.043s2.222-.008 2.998-.043c.773-.034 1.304-.159 1.764-.338a3.72 3.72 0 0 0 2.128-2.128c.179-.463.304-.992.338-1.765.034-.776.043-1.023.043-2.998s-.003-2.222-.037-2.998zm-1.309 5.938c-.031.71-.151 1.094-.25 1.35a2.409 2.409 0 0 1-1.381 1.381c-.256.099-.642.219-1.35.25-.767.034-.997.043-2.938.043s-2.174-.008-2.938-.043c-.71-.031-1.094-.15-1.35-.25a2.228 2.228 0 0 1-.835-.543 2.264 2.264 0 0 1-.543-.835c-.099-.256-.219-.642-.25-1.35-.034-.767-.043-.997-.043-2.938s.008-2.174.043-2.938c.031-.71.151-1.094.25-1.35.117-.315.301-.602.546-.835.236-.242.52-.426.835-.543.256-.099.642-.219 1.35-.25.767-.034.997-.043 2.938-.043 1.944 0 2.174.008 2.938.043.71.031 1.094.151 1.35.25.315.116.602.301.835.543.241.236.426.52.543.835.099.256.219.642.25 1.35.034.767.043.997.043 2.938s-.009 2.168-.043 2.935z"/><path " style="" d="M16.027 12.265a3.737 3.737 0 0 0 0 7.472c2.063 0 3.737-1.674 3.737-3.736s-1.674-3.736-3.737-3.736zm0 6.16a2.424 2.424 0 1 1 0-4.849 2.424 2.424 0 0 1 0 4.849zM20.784 12.117a.872.872 0 1 1-1.744 0 .872.872 0 0 1 1.744 0z"/></symbol><symbol id="icon-icon-twitter" viewBox="0 0 32 32"><path fill="#fff" style="fill:var(--color4, #fff)" d="M32 16c0 4.418-1.791 8.418-4.686 11.314S20.419 32 16 32s-8.418-1.791-11.314-4.686C1.791 24.419 0 20.419 0 16S1.791 7.582 4.686 4.686 11.581 0 16 0c4.418 0 8.418 1.791 11.314 4.686S32 11.581 32 16z"/><path fill="#afb1b8" style="fill:var(--color5, #afb1b8)" d="M23.273 11.49a6.248 6.248 0 0 1-1.718.471 2.967 2.967 0 0 0 1.312-1.648 5.963 5.963 0 0 1-1.891.722 2.981 2.981 0 0 0-5.158 2.039c0 .236.02.464.069.68a8.439 8.439 0 0 1-6.146-3.119 2.985 2.985 0 0 0 .917 3.985 2.943 2.943 0 0 1-1.347-.367v.033a2.996 2.996 0 0 0 2.389 2.93 2.992 2.992 0 0 1-.782.098 2.64 2.64 0 0 1-.565-.051 3.01 3.01 0 0 0 2.786 2.077 5.991 5.991 0 0 1-3.697 1.272 5.59 5.59 0 0 1-.714-.041 8.393 8.393 0 0 0 4.575 1.338c5.487 0 8.487-4.545 8.487-8.485 0-.132-.005-.259-.011-.385a5.95 5.95 0 0 0 1.495-1.548z"/></symbol><symbol id="icon-icon-facebook" viewBox="0 0 32 32"><path fill="#fff" style="fill:var(--color4, #fff)" d="M32 16c0 4.418-1.791 8.418-4.686 11.314S20.419 32 16 32s-8.418-1.791-11.314-4.686C1.791 24.419 0 20.419 0 16S1.791 7.582 4.686 4.686 11.581 0 16 0c4.418 0 8.418 1.791 11.314 4.686S32 11.581 32 16z"/><path fill="#afb1b8" style="fill:var(--color5, #afb1b8)" d="M18.422 11.142h1.328V8.829a17.317 17.317 0 0 0-1.935-.102c-1.915 0-3.226 1.204-3.226 3.418v2.037h-2.113v2.585h2.113v6.505h2.59v-6.505h2.027l.322-2.585h-2.35v-1.781c.001-.747.202-1.259 1.243-1.259z"/></symbol><symbol id="icon-icon-ln" viewBox="0 0 32 32"><path fill="#fff" style="fill:var(--color4, #fff)" d="M32 16c0 4.418-1.791 8.418-4.686 11.314S20.419 32 16 32s-8.418-1.791-11.314-4.686C1.791 24.419 0 20.419 0 16S1.791 7.582 4.686 4.686 11.581 0 16 0c4.418 0 8.418 1.791 11.314 4.686S32 11.581 32 16z"/><path fill="#afb1b8" style="fill:var(--color5, #afb1b8)" d="m23.269 23.273.004-.001v-5.335c0-2.61-.562-4.62-3.613-4.62-1.467 0-2.451.805-2.853 1.568h-.042v-1.324h-2.893v9.711h3.012v-4.809c0-1.266.24-2.49 1.808-2.49 1.545 0 1.568 1.445 1.568 2.572v4.728h3.009zM8.967 13.562h3.016v9.711H8.967v-9.711zM10.474 8.727c-.964 0-1.747.782-1.747 1.747s.782 1.763 1.747 1.763c.964 0 1.747-.799 1.747-1.763s-.783-1.747-1.747-1.747z"/></symbol><symbol id="icon-client-1" viewBox="0 0 32 32"><path fill="#afb1b8" style="fill:var(--color5, #afb1b8)" d="m12.988 11.294 1.376 1.302h3.837v3.633l1.376 1.302v-6.237h-6.588z"/><path fill="#afb1b8" style="fill:var(--color5, #afb1b8)" d="M11.859 12.541V18.6h6.4v-2.408l-3.854-3.649-2.546-.002zm5.181 5.173h-4.168v-4.075h.295v3.799h3.873v.276zM13.702 19.724l.154-.317h.129l-.224.423v.246h-.117v-.246l-.225-.423h.129l.154.317zm.661.196h-.259l-.054.156h-.121l.253-.669h.104l.253.669h-.121l-.055-.156zm-.227-.094h.194l-.097-.278-.097.278zm.685.069c0-.031.008-.059.025-.085s.05-.057.1-.092c-.026-.033-.044-.061-.055-.084s-.015-.045-.015-.067c0-.052.016-.094.048-.124s.075-.046.129-.046c.049 0 .089.014.12.043s.047.064.047.106c0 .028-.007.054-.021.077s-.037.047-.069.07l-.046.033.129.153a.265.265 0 0 0 .028-.123h.097c0 .082-.019.15-.058.203l.098.116h-.13l-.038-.045c-.048.036-.105.054-.171.054s-.119-.017-.159-.052a.173.173 0 0 1-.059-.137zm.221.101a.172.172 0 0 0 .106-.038l-.146-.172-.014.01c-.037.028-.055.06-.055.096 0 .031.01.056.03.075s.047.029.08.029zm-.061-.431c0 .026.016.058.047.097l.051-.035.014-.012a.082.082 0 0 0 .028-.065c0-.017-.007-.032-.02-.045s-.03-.019-.05-.019c-.022 0-.039.007-.052.022s-.019.033-.019.056zm1.215.293c-.007.071-.033.127-.079.167s-.107.06-.183.06c-.053 0-.1-.013-.141-.038s-.072-.061-.094-.108-.034-.101-.034-.162v-.063c0-.063.011-.119.034-.167a.255.255 0 0 1 .241-.15c.074 0 .133.02.178.06s.071.097.079.17h-.116c-.006-.048-.02-.083-.042-.104s-.055-.032-.099-.032c-.051 0-.089.019-.117.056s-.041.091-.041.162v.059c0 .072.013.127.039.165s.064.057.114.057c.046 0 .08-.01.103-.031s.038-.055.044-.102h.116zm.639-.099c0 .066-.011.123-.034.173s-.055.087-.097.114c-.042.026-.09.04-.145.04a.261.261 0 0 1-.243-.154.4.4 0 0 1-.035-.17v-.038c0-.065.011-.123.034-.173a.256.256 0 0 1 .243-.154.259.259 0 0 1 .243.153.398.398 0 0 1 .035.171v.037zm-.117-.035c0-.074-.014-.131-.042-.171s-.068-.059-.119-.059c-.05 0-.09.02-.118.059s-.043.095-.043.167v.039c0 .074.014.13.043.171s.069.06.119.06c.051 0 .091-.02.119-.059s.042-.096.042-.172v-.035z"/></symbol><symbol id="icon-client-2" viewBox="0 0 32 32"><path fill="#afb1b8" style="fill:var(--color5, #afb1b8)" d="M15.431 11.658h.026c.048 0 .099.005.15.009.225.016.447.049.667.101v-.539a4.008 4.008 0 0 0-.688-.11 4.808 4.808 0 0 0-.278-.013h-.08c-.466.002-.93.062-1.381.178a5.592 5.592 0 0 0-1.465.596v5.345a6.118 6.118 0 0 1 2.569-.724h.016c.066-.003.132-.005.2-.006v-.548a6.53 6.53 0 0 0-2.054.359l-.19.065v-4.168l.081-.039a5.314 5.314 0 0 1 1.979-.505H15c.076-.004.152-.006.227-.006h.086l.119.004z"/><path fill="#afb1b8" style="fill:var(--color5, #afb1b8)" d="M16.774 12.223a4.957 4.957 0 0 1-.798-.064 4.566 4.566 0 0 1-.249-.05v5.284c.343.085.695.126 1.048.123.466-.002.93-.062 1.381-.178a5.613 5.613 0 0 0 1.466-.596v-5.25a6.04 6.04 0 0 1-2.848.731zm2.113.091.191-.064v4.169l-.081.039a5.192 5.192 0 0 1-.974.35 5.04 5.04 0 0 1-1.246.161c-.126 0-.25-.005-.371-.016l-.131-.011v-4.287l.152.01c.11.007.225.011.349.011a6.444 6.444 0 0 0 2.111-.361zM12.751 19.052a.285.285 0 0 0-.212-.085.298.298 0 0 0-.217.086.262.262 0 0 0-.061.096.32.32 0 0 0-.022.118v.714c-.002.05.008.1.028.146a.293.293 0 0 0 .071.096.263.263 0 0 0 .098.051.39.39 0 0 0 .107.015.3.3 0 0 0 .295-.301v-.08h-.187v.064a.157.157 0 0 1-.011.064.109.109 0 0 1-.027.04.147.147 0 0 1-.039.021.178.178 0 0 1-.039.007c-.017.002-.034-.001-.049-.007s-.029-.017-.039-.031a.17.17 0 0 1-.025-.096v-.666a.232.232 0 0 1 .023-.107c.01-.015.023-.027.04-.035s.034-.011.052-.008c.016-.001.032.003.047.01s.027.017.037.03a.15.15 0 0 1 .031.096v.062h.185v-.073a.334.334 0 0 0-.085-.226zM13.86 19.044a.332.332 0 0 0-.323-.058.284.284 0 0 0-.171.158.33.33 0 0 0-.027.138v.685a.336.336 0 0 0 .027.14c.017.037.042.07.072.096.029.026.062.047.099.06a.33.33 0 0 0 .222 0c.037-.014.071-.034.101-.06s.054-.059.07-.096a.336.336 0 0 0 .027-.14v-.685a.324.324 0 0 0-.097-.238zm-.088.923c.002.018-.001.037-.007.054s-.017.033-.03.045a.136.136 0 0 1-.176 0c-.013-.013-.023-.028-.03-.045s-.009-.036-.007-.054v-.685c-.002-.018.001-.037.007-.054s.017-.033.03-.045a.136.136 0 0 1 .176 0c.013.013.023.028.03.045s.009.036.007.054v.685zM15.316 20.273v-1.297h-.18l-.236.686h-.003l-.238-.686h-.178v1.297h.185v-.789h.003l.181.558h.092l.183-.558h.003v.789h.185zM16.369 19.067a.268.268 0 0 0-.105-.071.407.407 0 0 0-.134-.02h-.275v1.297h.185v-.506h.095a.344.344 0 0 0 .167-.035.267.267 0 0 0 .101-.099.31.31 0 0 0 .042-.113.908.908 0 0 0 .01-.147.718.718 0 0 0-.018-.185.273.273 0 0 0-.068-.119zm-.096.395a.17.17 0 0 1-.017.067.1.1 0 0 1-.048.045.185.185 0 0 1-.087.016h-.084v-.441h.095a.181.181 0 0 1 .083.016.105.105 0 0 1 .043.048.18.18 0 0 1 .016.072v.086c0 .03.002.061 0 .089h-.002zM17.244 18.976h-.151l-.286 1.297h.185l.054-.279h.252l.054.279h.185l-.293-1.297zm-.171.842.091-.47h.003l.09.47h-.185zM18.438 19.757h-.003l-.279-.781h-.178v1.297h.185v-.78h.004l.282.78h.174v-1.297h-.185v.781zM19.567 18.976l-.149.516h-.004l-.149-.516h-.196l.254.749v.548h.185v-.548l.254-.749h-.196zM12.235 20.639h.089v.25h.06v-.25h.089v-.051h-.238v.051zM12.984 20.588l-.117.301h.064l.025-.068h.12l.026.068h.066l-.12-.301h-.064zm-.01.182.041-.112.041.112h-.082zM13.724 20.778h.07v.039a.114.114 0 0 1-.071.025.076.076 0 0 1-.063-.029.122.122 0 0 1-.022-.078c0-.067.029-.101.087-.101.015-.002.03.003.043.011s.021.022.025.037l.06-.011c-.013-.059-.055-.089-.128-.089a.15.15 0 0 0-.105.039.149.149 0 0 0-.043.116.161.161 0 0 0 .039.113c.015.015.033.027.052.035s.041.011.062.009a.184.184 0 0 0 .128-.048v-.119h-.13v.051zM14.479 20.588h-.061v.301h.211v-.051h-.15v-.25zM15.119 20.588h-.061v.301h.061v-.301zM15.743 20.789l-.123-.201h-.059v.301h.057v-.197l.121.197h.06v-.301h-.056v.201zM16.308 20.756h.15v-.051h-.15v-.066h.161v-.051h-.222v.301h.229v-.051h-.168v-.081zM17.678 20.706h-.119v-.119h-.06v.301h.06v-.132h.119v.132h.06v-.301h-.06v.119zM18.246 20.756h.15v-.051h-.15v-.066h.162v-.051h-.222v.301h.228v-.051h-.168v-.081zM19.016 20.756c.053-.008.079-.036.079-.084a.068.068 0 0 0-.029-.067.168.168 0 0 0-.088-.018h-.128v.301h.06v-.126h.012a.083.083 0 0 1 .038.007.056.056 0 0 1 .021.022l.066.096h.072l-.037-.059a.201.201 0 0 0-.067-.072zm-.061-.041h-.045v-.076h.048a.155.155 0 0 1 .061.007c.005.004.008.009.01.014s.003.011.003.017c0 .006-.002.012-.005.017s-.007.01-.011.013a.16.16 0 0 1-.061.007zM19.597 20.756h.15v-.051h-.15v-.066h.162v-.051h-.223v.301h.229v-.051h-.168v-.081z"/></symbol><symbol id="icon-client-3" viewBox="0 0 32 32"><path fill="#afb1b8" style="fill:var(--color5, #afb1b8)" d="m13.43 19.914.008.002a.03.03 0 0 1 .007.005l.039.041a.313.313 0 0 1-.109.077.386.386 0 0 1-.154.028.376.376 0 0 1-.145-.026.303.303 0 0 1-.109-.073.343.343 0 0 1-.071-.113.416.416 0 0 1 .002-.289.321.321 0 0 1 .191-.186.423.423 0 0 1 .289-.002.372.372 0 0 1 .104.065l-.032.043-.008.008a.018.018 0 0 1-.013.003.024.024 0 0 1-.014-.005l-.017-.012-.024-.015a.309.309 0 0 0-.076-.026.298.298 0 0 0-.165.014.238.238 0 0 0-.139.141.319.319 0 0 0-.02.114.305.305 0 0 0 .02.116.25.25 0 0 0 .054.086c.022.023.05.042.08.053s.066.019.1.018c.02 0 .04-.001.059-.004a.22.22 0 0 0 .128-.06.026.026 0 0 1 .018-.007zM14.548 19.71a.366.366 0 0 1-.026.143c-.016.042-.041.08-.073.111s-.071.057-.114.073a.436.436 0 0 1-.294 0 .33.33 0 0 1-.188-.186.405.405 0 0 1 0-.287.335.335 0 0 1 .074-.113.328.328 0 0 1 .114-.071.425.425 0 0 1 .294 0 .315.315 0 0 1 .187.184.375.375 0 0 1 .026.144zm-.101 0a.322.322 0 0 0-.018-.115.231.231 0 0 0-.134-.14.315.315 0 0 0-.214 0 .231.231 0 0 0-.134.14.365.365 0 0 0 0 .231.226.226 0 0 0 .134.14.315.315 0 0 0 .214 0 .226.226 0 0 0 .134-.14.322.322 0 0 0 .018-.115zM15.311 19.831l.01.026.011-.026.013-.025.247-.428c.005-.007.009-.012.014-.013a.046.046 0 0 1 .02-.002h.073v.697h-.087v-.558l-.249.435c-.003.006-.008.012-.015.016s-.014.006-.021.006h-.014c-.008 0-.015-.002-.021-.006s-.011-.009-.015-.016l-.256-.437v.559h-.084v-.696h.073c.007 0 .014 0 .02.002s.011.008.014.013l.253.429a.196.196 0 0 1 .013.025zM16.242 19.797v.261h-.097v-.696h.216a.414.414 0 0 1 .121.015c.031.008.06.023.085.043a.18.18 0 0 1 .048.068.248.248 0 0 1-.002.178.2.2 0 0 1-.052.07.231.231 0 0 1-.086.046.385.385 0 0 1-.117.016l-.117-.002zm0-.075h.117a.24.24 0 0 0 .075-.011.16.16 0 0 0 .054-.03.123.123 0 0 0 .033-.046.148.148 0 0 0 .012-.059c.001-.019-.002-.039-.01-.057s-.019-.034-.034-.048a.188.188 0 0 0-.13-.037h-.117v.287zM17.544 20.059h-.076c-.008 0-.015-.002-.021-.006s-.01-.01-.013-.016l-.066-.168h-.331l-.068.168c-.003.006-.007.012-.012.016s-.014.007-.022.007h-.076l.291-.697h.101l.294.697zm-.48-.259h.273l-.115-.284a.464.464 0 0 1-.022-.066l-.011.036a.21.21 0 0 1-.011.03l-.114.283zM17.962 19.365a.044.044 0 0 1 .015.012l.424.525v-.541h.087v.697h-.048c-.007 0-.014-.001-.02-.004s-.011-.008-.015-.013l-.423-.525v.542h-.087v-.697h.051c.006 0 .012.001.017.003zM19.201 19.781v.277h-.097v-.277l-.268-.42h.087c.008 0 .015.002.021.006s.01.01.013.016l.168.271c.007.012.013.022.017.032l.012.03.013-.03c.005-.011.01-.022.017-.032l.165-.273c.003-.005.008-.01.013-.015s.013-.007.021-.007h.088l-.268.422zM15.263 18.192l.128.013c.653-.278 1.206-.734 1.589-1.31s.579-1.247.564-1.929l-.72-.686c.146.726.078 1.476-.198 2.167s-.748 1.295-1.363 1.745z"/><path fill="#afb1b8" style="fill:var(--color5, #afb1b8)" d="m15.006 18.16.019.004c.658-.448 1.159-1.074 1.44-1.797s.327-1.509.133-2.257l-1.025-.977c.415.803.582 1.702.481 2.592s-.464 1.734-1.048 2.435zM18.484 15.771a3.53 3.53 0 0 1-1.207 1.926c-.178.147-.37.279-.573.392.496-.139.952-.384 1.333-.718s.676-.746.863-1.205l-.416-.396z"/><path fill="#afb1b8" style="fill:var(--color5, #afb1b8)" d="m18.321 15.661-.592-.564c-.011.643-.203 1.272-.556 1.82s-.853.997-1.449 1.299h.003c.133 0 .266-.008.398-.023.557-.217 1.049-.561 1.433-1.003s.646-.967.764-1.53zM15.092 12.721l-.706-.674c-.632.232-1.175.641-1.558 1.173s-.59 1.161-.592 1.806c.002.713.254 1.404.716 1.965s1.106.959 1.832 1.132c.648-.752 1.027-1.681 1.083-2.653s-.215-1.935-.773-2.749zM19.953 15.557c-.002-.846-.356-1.656-.984-2.254s-1.478-.935-2.366-.937c-.41 0-.817.072-1.199.213l4.325 4.121c.148-.364.224-.752.224-1.142z"/></symbol><symbol id="icon-client-5" viewBox="0 0 32 32"><path fill="#afb1b8" style="fill:var(--color5, #afb1b8)" d="M11.386 19.064a.298.298 0 0 1 .065.19c.002.045-.006.09-.023.132s-.044.079-.078.109a.435.435 0 0 1-.293.088h-.516v-1.206h.505a.43.43 0 0 1 .28.08.28.28 0 0 1 .098.225.27.27 0 0 1-.213.278c.068.013.13.049.174.103zm-.605-.182h.216a.203.203 0 0 0 .137-.04.139.139 0 0 0 .046-.117.15.15 0 0 0-.046-.118.211.211 0 0 0-.141-.041h-.212v.316zm.374.462c.017-.015.031-.034.04-.055s.013-.044.011-.067a.158.158 0 0 0-.052-.124.226.226 0 0 0-.147-.044h-.226v.332h.229a.227.227 0 0 0 .145-.042zM12.418 19.582l-.281-.471h-.106v.471h-.242v-1.206h.458a.457.457 0 0 1 .319.102.384.384 0 0 1 .034.499.368.368 0 0 1-.218.122l.299.482h-.263zm-.386-.635h.198c.137 0 .206-.061.206-.183a.18.18 0 0 0-.05-.135.213.213 0 0 0-.155-.049h-.2l.002.367zM13.739 19.34h-.482l-.085.243h-.253l.442-1.192h.274l.441 1.192h-.253l-.083-.243zm-.064-.183-.176-.509-.176.509h.352zM15.393 19.582h-.24l-.538-.82v.82h-.239v-1.206h.239l.538.825v-.825h.24v1.206zM16.762 19.294a.524.524 0 0 1-.217.213.703.703 0 0 1-.337.076h-.427v-1.206h.427a.713.713 0 0 1 .337.074c.092.046.168.12.217.21a.706.706 0 0 1 0 .632zm-.274-.029a.445.445 0 0 0 0-.576.414.414 0 0 0-.3-.102h-.167v.78h.167c.11.007.218-.03.3-.102zM13.89 11.671s3.097 1.174 3.031 2.872v2.873s-3.094-1.174-3.03-2.873l-.001-2.872zM19.679 16.743a4.238 4.238 0 0 1 1.968-.728v-.899a4.045 4.045 0 0 0-1.968 1.627z"/><path fill="#afb1b8" style="fill:var(--color5, #afb1b8)" d="M19.328 17.014a4.214 4.214 0 0 1 2.319-2.087v-2.591s-4.41 1.672-4.317 4.091v4.09s.197-.075.506-.215c0-.131 0-.263.014-.395a4.254 4.254 0 0 1 1.478-2.893z"/><path fill="#afb1b8" style="fill:var(--color5, #afb1b8)" d="M18.909 18.534c.023-.284.075-.564.154-.837a3.964 3.964 0 0 0-.934 2.471c.25-.121.542-.271.848-.449a4.277 4.277 0 0 1-.069-1.184zM19.084 18.549c-.029.358-.011.719.054 1.073 1.205-.724 2.559-1.842 2.507-3.194v-.118a3.958 3.958 0 0 0-2.293 1.075 4.05 4.05 0 0 0-.269 1.164z"/></symbol><symbol id="icon-client-6" viewBox="0 0 32 32"><path fill="#afb1b8" style="fill:var(--color5, #afb1b8)" d="M16.139 15.69a.611.611 0 0 1-.107-.387v-.561c0-.172.036-.303.107-.392s.193-.134.367-.134c.163 0 .279.038.347.114a.494.494 0 0 1 .103.336v.132h-.291v-.134a.816.816 0 0 0-.008-.131.129.129 0 0 0-.042-.078.16.16 0 0 0-.106-.03.167.167 0 0 0-.111.032.155.155 0 0 0-.048.086.718.718 0 0 0-.011.139v.681a.37.37 0 0 0 .037.191c.014.02.035.036.058.046s.05.014.075.011a.147.147 0 0 0 .103-.031.134.134 0 0 0 .043-.083.777.777 0 0 0 .009-.136v-.138h.291v.126a.547.547 0 0 1-.101.353c-.067.083-.181.125-.349.125s-.294-.045-.366-.137zM17.353 15.696c-.074-.087-.11-.215-.11-.383v-.591c0-.167.037-.293.11-.379s.197-.128.369-.128c.171 0 .294.043.367.128s.111.212.111.379v.591c0 .167-.037.295-.112.383s-.197.132-.366.132c-.17 0-.295-.045-.369-.131zm.505-.142a.366.366 0 0 0 .035-.175v-.723a.348.348 0 0 0-.034-.171.146.146 0 0 0-.137-.057c-.026-.003-.053 0-.077.01s-.045.026-.06.047a.328.328 0 0 0-.035.171v.726c-.004.06.008.12.035.175a.188.188 0 0 0 .272 0v-.003zM18.551 14.233h.314l.236 1.09.241-1.09h.305l.031 1.573h-.226l-.024-1.093-.233 1.093h-.181l-.241-1.097-.022 1.097h-.228l.028-1.573zM20.029 14.233h.489c.282 0 .422.149.422.447 0 .285-.148.428-.445.427h-.166v.699h-.302l.002-1.573zm.418.672a.214.214 0 0 0 .166-.05.268.268 0 0 0 .043-.178.494.494 0 0 0-.015-.143c-.004-.016-.012-.03-.022-.043s-.023-.024-.038-.032a.283.283 0 0 0-.135-.025h-.117v.47h.117zM21.375 14.233h.324l.332 1.573h-.281l-.066-.363h-.289l-.068.363h-.285l.332-1.573zm.277 1.028-.113-.66-.113.66h.226zM22.3 14.233h.211l.404.897v-.897h.25v1.573h-.201l-.407-.937v.937h-.259l.001-1.573zM23.752 15.206l-.336-.971h.283l.205.624.193-.624h.277l-.332.971v.6h-.29v-.6zM16.605 16.493v.082h-.246v.639h-.103v-.639h-.247v-.082h.597zM17.377 17.214h-.08c-.008 0-.016-.002-.022-.007s-.011-.01-.013-.017l-.071-.171h-.341l-.071.171a.045.045 0 0 1-.011.019.034.034 0 0 1-.022.007h-.08l.302-.721h.105l.305.718zm-.5-.267h.285l-.121-.294a.539.539 0 0 1-.022-.068l-.011.038-.011.03-.119.293zM17.897 17.143a.27.27 0 0 0 .105-.009c.015-.003.029-.008.043-.013s.027-.011.04-.018v-.162h-.121l-.009-.001-.008-.004-.005-.006c-.001-.002-.002-.005-.001-.007v-.055h.234v.276a.442.442 0 0 1-.202.074.865.865 0 0 1-.088.005.435.435 0 0 1-.152-.027c-.045-.017-.086-.043-.121-.075s-.06-.072-.078-.114a.415.415 0 0 1-.001-.301c.017-.043.044-.082.078-.114s.075-.058.121-.075a.496.496 0 0 1 .318-.003.332.332 0 0 1 .112.067l-.029.045c-.002.004-.006.007-.01.01s-.009.004-.014.004a.033.033 0 0 1-.019-.006l-.03-.017a.38.38 0 0 0-.095-.035.49.49 0 0 0-.077-.006.326.326 0 0 0-.116.02.252.252 0 0 0-.089.057.248.248 0 0 0-.056.09.366.366 0 0 0 0 .24.262.262 0 0 0 .148.148.32.32 0 0 0 .119.014zM18.858 17.132h.329v.082h-.43v-.721h.103l-.002.639zM19.531 17.214h-.103v-.721h.103v.721zM19.914 16.496c.006.003.011.008.016.013l.441.544V16.49h.09v.724h-.052a.041.041 0 0 1-.038-.018l-.44-.543v.561h-.086v-.721h.054c.006 0 .012.001.017.003zM21.22 16.493v.079h-.366v.238h.296v.077h-.296v.246h.366v.079h-.472v-.72h.472zM10.41 12.038l4.581 1.231v4.315l-4.581-1.231v-4.315zm-.294-.367v4.893l5.168 1.389v-4.892l-5.168-1.39z"/><path fill="#afb1b8" style="fill:var(--color5, #afb1b8)" d="m12.886 20.224-5.168-1.391v-4.892l5.168 1.39v4.893z"/><path fill="#afb1b8" style="fill:var(--color5, #afb1b8)" d="m10.202 11.983 4.521 1.216L12.8 15.02l-4.522-1.216 1.923-1.82zm-.086-.312-2.399 2.271 5.168 1.39 2.398-2.271-5.168-1.39zM13.177 19.949l2.107-1.995-2.107-.567v2.563z"/></symbol><symbol id="icon-icon-instagram-2" viewBox="0 0 32 32"><path fill="#fff" style="fill:var(--color4, #fff)" d="M31.969 9.408c-.075-1.7-.35-2.869-.744-3.882a7.806 7.806 0 0 0-1.851-2.838A7.867 7.867 0 0 0 26.542.844C25.523.45 24.36.175 22.66.1 20.947.019 20.403 0 16.059 0s-4.888.019-6.595.094c-1.7.075-2.869.35-3.882.744a7.803 7.803 0 0 0-2.838 1.85A7.867 7.867 0 0 0 .9 5.52C.506 6.539.231 7.702.156 9.402c-.081 1.713-.1 2.257-.1 6.601s.019 4.888.094 6.595c.075 1.7.35 2.869.744 3.882a7.895 7.895 0 0 0 1.85 2.838 7.867 7.867 0 0 0 2.832 1.844c1.019.394 2.182.669 3.882.744 1.706.075 2.25.094 6.595.094s4.888-.019 6.595-.094c1.7-.075 2.869-.35 3.882-.744a8.184 8.184 0 0 0 4.682-4.682c.394-1.019.669-2.182.744-3.882.075-1.707.094-2.251.094-6.595s-.006-4.888-.081-6.595zm-2.882 13.065c-.069 1.563-.331 2.407-.55 2.969a5.31 5.31 0 0 1-3.038 3.038c-.563.219-1.413.481-2.969.55-1.688.075-2.194.094-6.464.094s-4.782-.019-6.464-.094c-1.563-.069-2.407-.331-2.969-.55a4.926 4.926 0 0 1-1.838-1.194 4.974 4.974 0 0 1-1.194-1.838c-.219-.563-.481-1.413-.55-2.969-.075-1.688-.094-2.194-.094-6.464s.019-4.782.094-6.464c.069-1.563.331-2.407.55-2.969a4.868 4.868 0 0 1 1.2-1.838A4.974 4.974 0 0 1 6.639 3.55c.563-.219 1.413-.481 2.969-.55 1.688-.075 2.194-.094 6.464-.094 4.276 0 4.782.019 6.464.094 1.563.069 2.407.331 2.969.55a4.914 4.914 0 0 1 1.838 1.194 4.974 4.974 0 0 1 1.194 1.838c.219.563.481 1.413.55 2.969.075 1.688.094 2.194.094 6.464s-.019 4.77-.094 6.458z"/><path fill="#fff" style="fill:var(--color4, #fff)" d="M16.059 7.783c-4.538 0-8.22 3.682-8.22 8.22s3.682 8.22 8.22 8.22c4.539 0 8.22-3.682 8.22-8.22s-3.682-8.22-8.22-8.22zm0 13.552a5.333 5.333 0 0 1 0-10.664 5.333 5.333 0 0 1 0 10.664zM26.524 7.458a1.919 1.919 0 1 1-3.838 0 1.919 1.919 0 0 1 3.838 0z"/></symbol><symbol id="icon-icon-twitter-2" viewBox="0 0 32 32"><path fill="#fff" style="fill:var(--color4, #fff)" d="M32 6.078c-1.19.522-2.458.868-3.78 1.036a6.523 6.523 0 0 0 2.886-3.626 13.11 13.11 0 0 1-4.16 1.588A6.574 6.574 0 0 0 22.154 3c-3.632 0-6.556 2.948-6.556 6.562 0 .52.044 1.02.152 1.496-5.454-.266-10.28-2.88-13.522-6.862a6.605 6.605 0 0 0-.898 3.316 6.57 6.57 0 0 0 2.914 5.452 6.479 6.479 0 0 1-2.964-.808v.072c0 3.188 2.274 5.836 5.256 6.446a6.548 6.548 0 0 1-1.72.216 5.8 5.8 0 0 1-1.242-.112c.85 2.598 3.262 4.508 6.13 4.57a13.182 13.182 0 0 1-8.134 2.798c-.538 0-1.054-.024-1.57-.09A18.469 18.469 0 0 0 10.064 29c12.072 0 18.672-10 18.672-18.668 0-.29-.01-.57-.024-.848A13.087 13.087 0 0 0 32 6.078z"/></symbol><symbol id="icon-icon-facebook-2" viewBox="0 0 32 32"><path fill="#fff" style="fill:var(--color4, #fff)" opacity=".1" d="M32 16c0 4.418-1.791 8.418-4.686 11.314S20.419 32 16 32s-8.418-1.791-11.314-4.686C1.791 24.419 0 20.419 0 16S1.791 7.582 4.686 4.686 11.581 0 16 0c4.418 0 8.418 1.791 11.314 4.686S32 11.581 32 16z"/><path fill="#fff" style="fill:var(--color4, #fff)" d="M18.422 11.142h1.328V8.829a17.317 17.317 0 0 0-1.935-.102c-1.915 0-3.226 1.204-3.226 3.418v2.037h-2.113v2.585h2.113v6.505h2.59v-6.505h2.027l.322-2.585h-2.35v-1.781c.001-.747.202-1.259 1.243-1.259z"/></symbol><symbol id="icon-icon-ln-2" viewBox="0 0 32 32"><path fill="#fff" style="fill:var(--color4, #fff)" opacity=".1" d="M32 16c0 4.418-1.791 8.418-4.686 11.314S20.419 32 16 32s-8.418-1.791-11.314-4.686C1.791 24.419 0 20.419 0 16S1.791 7.582 4.686 4.686 11.581 0 16 0c4.418 0 8.418 1.791 11.314 4.686S32 11.581 32 16z"/><path fill="#fff" style="fill:var(--color4, #fff)" d="M23.269 23.273v-.001h.004v-5.335c0-2.61-.562-4.62-3.613-4.62-1.467 0-2.451.805-2.853 1.568h-.042v-1.324h-2.893v9.711h3.012v-4.809c0-1.266.24-2.49 1.808-2.49 1.545 0 1.568 1.445 1.568 2.572v4.728h3.009zM8.967 13.562h3.016v9.711H8.967v-9.711zM10.474 8.727c-.964 0-1.747.782-1.747 1.747s.782 1.763 1.747 1.763c.964 0 1.747-.799 1.747-1.763s-.783-1.747-1.747-1.747z"/></symbol><symbol id="icon-icon-telegram" viewBox="0 0 32 32"><path fill="#fff" style="fill:var(--color4, #fff)" d="M32 0 0 18l10.227 3.788L26 7 14.002 23.186l.01.004-.012-.004V32l5.735-6.691L27 28l5-28z"/></symbol></defs></svg>